<svg xmlns="http://www.w3.org/2000/svg" xmlns:xlink="http://www.w3.org/1999/xlink" width="1800" height="1200" x="0" y="0" enable-background="new 0 0 1800 1200" version="1.1" viewBox="0 0 1800 1200" xml:space="preserve"><g id="Circle-1"><linearGradient id="SVGID_1_" x1="155.958" x2="2366.688" y1="810.728" y2="810.728" gradientUnits="userSpaceOnUse"><stop offset="0" style="stop-color:#2484c6"/><stop offset="1" style="stop-color:#2484c6;stop-opacity:0"/></linearGradient><path fill="url(#SVGID_1_)" d="M287.591,1784.46C5.314,1502.184,188.187,861.649,729.206,320.63s1235.313-777.652,1517.589-495.375 s45.645,976.57-495.375,1517.59S569.868,2066.737,287.591,1784.46z"><animateTransform attributeName="transform" attributeType="XML" begin="1.8" dur="2s" repeatCount="indefinite" type="translate" values="0,50;0,-50;0,50;"/></path></g><g id="Circle-2"><linearGradient id="SVGID_2_" x1="59.198" x2="2263.841" y1="667.751" y2="667.751" gradientUnits="userSpaceOnUse"><stop offset="0" style="stop-color:#2484c6"/><stop offset="1" style="stop-color:#2484c6;stop-opacity:0"/></linearGradient><path fill="url(#SVGID_2_)" d="M184.744,1641.976c-282.277-282.277-72.524-949.69,468.495-1490.71 c515.932-515.932,1208.433-750.772,1490.71-468.495s45.645,976.57-495.375,1517.59S467.02,1924.253,184.744,1641.976z"><animateTransform attributeName="transform" attributeType="XML" begin="1.6" dur="2s" repeatCount="indefinite" type="translate" values="0,50;0,-50;0,50;"/></path></g><g id="Circle-3"><linearGradient id="SVGID_3_" x1="-71.135" x2="2133.509" y1="535.085" y2="535.085" gradientUnits="userSpaceOnUse"><stop offset="0" style="stop-color:#2484c6"/><stop offset="1" style="stop-color:#2484c6;stop-opacity:0"/></linearGradient><path fill="url(#SVGID_3_)" d="M54.411,1511.644c-282.277-282.277-72.524-949.691,468.495-1490.71 s1208.433-750.772,1490.71-468.495s45.645,976.57-495.375,1517.59S336.688,1793.921,54.411,1511.644z"><animateTransform attributeName="transform" attributeType="XML" begin="1.4" dur="2s" repeatCount="indefinite" type="translate" values="0,50;0,-50;0,50;"/></path></g><g id="Circle-4"><linearGradient id="SVGID_4_" x1="-223.841" x2="1980.802" y1="422.015" y2="422.015" gradientUnits="userSpaceOnUse"><stop offset="0" style="stop-color:#2484c6"/><stop offset="1" style="stop-color:#2484c6;stop-opacity:0"/></linearGradient><path fill="url(#SVGID_4_)" d="M-98.295,1398.574C-380.572,1116.297-170.82,448.884,370.2-92.136s1208.433-750.772,1490.71-468.495 s45.645,976.57-495.375,1517.59S183.982,1680.851-98.295,1398.574z"><animateTransform attributeName="transform" attributeType="XML" begin="1.2" dur="2s" repeatCount="indefinite" type="translate" values="0,50;0,-50;0,50;"/></path></g><g id="Circle-6"><linearGradient id="SVGID_5_" x1="-356.729" x2="1847.914" y1="289.127" y2="289.127" gradientUnits="userSpaceOnUse"><stop offset="0" style="stop-color:#2484c6"/><stop offset="1" style="stop-color:#2484c6;stop-opacity:0"/></linearGradient><path fill="url(#SVGID_5_)" d="M-231.183,1265.686c-282.277-282.277-72.524-949.691,468.495-1490.71 s1208.433-750.772,1490.71-468.495s45.645,976.57-495.375,1517.59S51.094,1547.963-231.183,1265.686z"><animateTransform attributeName="transform" attributeType="XML" begin="1" dur="2s" repeatCount="indefinite" type="translate" values="0,50;0,-50;0,50;"/></path></g><g id="Circle-7"><linearGradient id="SVGID_6_" x1="-487.061" x2="1717.582" y1="158.795" y2="158.795" gradientUnits="userSpaceOnUse"><stop offset="0" style="stop-color:#2484c6"/><stop offset="1" style="stop-color:#2484c6;stop-opacity:0"/></linearGradient><path fill="url(#SVGID_6_)" d="M-361.516,1135.354c-282.277-282.277-72.524-949.69,468.495-1490.71 s1208.433-750.772,1490.71-468.495s45.645,976.57-495.375,1517.59S-79.239,1417.631-361.516,1135.354z"><animateTransform attributeName="transform" attributeType="XML" begin=".8" dur="2s" repeatCount="indefinite" type="translate" values="0,50;0,-50;0,50;"/></path></g><g id="Circle-8"><linearGradient id="SVGID_7_" x1="-621.783" x2="1582.86" y1="14.998" y2="14.998" gradientUnits="userSpaceOnUse"><stop offset="0" style="stop-color:#2484c6"/><stop offset="1" style="stop-color:#2484c6;stop-opacity:0"/></linearGradient><path fill="url(#SVGID_7_)" d="M-496.237,991.557C-778.514,709.28-568.762,41.866-27.742-499.153s1208.433-750.772,1490.71-468.495 s45.645,976.57-495.375,1517.59S-213.96,1273.834-496.237,991.557z"><animateTransform attributeName="transform" attributeType="XML" begin=".6" dur="2s" repeatCount="indefinite" type="translate" values="0,50;0,-50;0,50;"/></path></g><g id="Circle-9"><linearGradient id="SVGID_8_" x1="-769.234" x2="1435.409" y1="-132.453" y2="-132.453" gradientUnits="userSpaceOnUse"><stop offset="0" style="stop-color:#2484c6"/><stop offset="1" style="stop-color:#2484c6;stop-opacity:0"/></linearGradient><path fill="url(#SVGID_8_)" d="M-643.688,844.106c-282.277-282.277-72.524-949.691,468.495-1490.71 s1208.433-750.772,1490.71-468.495s45.645,976.57-495.375,1517.59S-361.412,1126.383-643.688,844.106z"><animateTransform attributeName="transform" attributeType="XML" begin=".4" dur="2s" repeatCount="indefinite" type="translate" values="0,50;0,-50;0,50;"/></path></g><g id="Circle-10"><linearGradient id="SVGID_9_" x1="-1427.06" x2="1248.97" y1="-500.746" y2="-500.746" gradientUnits="userSpaceOnUse"><stop offset="0" style="stop-color:#2484c6"/><stop offset="1" style="stop-color:#2484c6;stop-opacity:0"/></linearGradient><path fill="url(#SVGID_9_)" d="M-1186.249,596.169c-423.656-423.656-273.697-1260.497,334.942-1869.136 s1445.48-758.598,1869.136-334.942S1261.287-317.174,652.648,291.466S-762.593,1019.825-1186.249,596.169z"><animateTransform attributeName="transform" attributeType="XML" begin=".2" dur="2s" repeatCount="indefinite" type="translate" values="0,50;0,-50;0,50;"/></path></g></svg>